<svg xmlns="http://www.w3.org/2000/svg" version="1.1" xmlns:xlink="http://www.w3.org/1999/xlink" xmlns:svgjs="http://svgjs.dev/svgjs" width="2000" height="2041" viewBox="0 0 2000 2041"><g transform="matrix(1,0,0,1,-1.9665442818028396,0.8263157894735969)"><svg viewBox="0 0 242 247" data-background-color="#ffffff" preserveAspectRatio="xMidYMid meet" height="2041" width="2000" xmlns="http://www.w3.org/2000/svg" xmlns:xlink="http://www.w3.org/1999/xlink"><defs></defs><g id="tight-bounds" transform="matrix(1,0,0,1,0.23795185809814257,-0.09999999999999432)"><svg viewBox="0 0 241.5240962838037 247.2" height="247.2" width="241.5240962838037"><g><svg viewBox="0 0 395.52 404.8148632139463" height="247.2" width="241.5240962838037"><g transform="matrix(1,0,0,1,0,269.93679723526157)"><svg viewBox="0 0 395.52 134.87806597868476" height="134.87806597868476" width="395.52"><g><svg viewBox="0 0 395.52 134.87806597868476" height="134.87806597868476" width="395.52"><g><rect width="75.54432" height="8.084570256460022" y="118.80276308792902" fill="#31c48d" data-fill-palette-color="tertiary"></rect><rect width="75.54432" height="8.084570256460022" y="118.80276308792902" x="319.97568" fill="#31c48d" data-fill-palette-color="tertiary"></rect></g><g><svg viewBox="0 0 395.52 89.64823397075365" height="89.64823397075365" width="395.52"><g transform="matrix(1,0,0,1,0,0)"><svg width="395.52" viewBox="2.25 -37.29999923706055 173.61000061035156 39.349998474121094" height="89.64823397075365" data-palette-color="#31c48d"><path d="M36.91-0.15L36.91-0.15Q36.67 0.1 36.38 0.15 36.08 0.2 35.79 0.2L35.79 0.2Q35.06 0.54 34.23 0.54L34.23 0.54Q33.69 0.24 33.64 0.34 33.59 0.44 33.45 0.54L33.45 0.54Q32.71 0.88 32.13 0.9 31.54 0.93 31.15 1.17L31.15 1.17Q30.76 0.88 30.74 0.32 30.71-0.24 30.62-0.63L30.62-0.63Q30.37-0.98 30.27-1.49 30.18-2 30.13-2.54 30.08-3.08 30-3.59 29.93-4.1 29.74-4.49L29.74-4.49Q29.69-4.74 29.71-4.93 29.74-5.13 29.64-5.37L29.64-5.37Q29.69-6.2 29.59-6.69 29.49-7.18 29.39-7.71L29.39-7.71Q29.35-8.01 29.35-8.37 29.35-8.74 29.05-8.94L29.05-8.94Q29.2-9.62 29.1-9.96 29-10.3 28.96-10.6L28.96-10.6Q28.91-10.99 28.91-11.45 28.91-11.91 28.81-12.3L28.81-12.3Q28.52-14.65 28.17-16.99 27.83-19.34 27.54-21.68L27.54-21.68Q27.25-21.44 27.12-20.95 27-20.46 26.9-20.07L26.9-20.07Q26.61-19.19 26.37-18.26 26.12-17.33 25.88-16.46L25.88-16.46Q25.78-16.06 25.71-15.55 25.63-15.04 25.49-14.65L25.49-14.65Q25-13.23 24.63-12.21 24.27-11.18 23.93-10.11L23.93-10.11Q23.83-9.52 23.73-8.98 23.63-8.45 23.54-7.91L23.54-7.91Q23.49-7.62 23.39-7.08 23.29-6.54 23.19-6.3L23.19-6.3Q23.1-6.05 23.02-5.96 22.95-5.86 23-5.62L23-5.62Q22.51-4.88 22.34-4 22.17-3.13 21.73-2.29L21.73-2.29Q21.73-1.71 21.29-1.27L21.29-1.27Q21.04-1.22 20.83-1.17 20.61-1.12 20.36-0.98L20.36-0.98Q20.12-1.07 19.8-1.1 19.48-1.12 19.19-1.12L19.19-1.12Q18.95-1.17 18.75-1.29 18.55-1.42 18.31-1.46L18.31-1.46Q18.07-1.76 17.77-1.98 17.48-2.2 17.19-2.44L17.19-2.44Q16.89-3.17 16.65-3.42L16.65-3.42Q16.5-3.96 16.26-4.42 16.02-4.88 15.92-5.47L15.92-5.47Q15.77-6.01 15.55-6.47 15.33-6.93 15.09-7.47L15.09-7.47Q14.99-7.81 14.87-8.13 14.75-8.45 14.6-8.79L14.6-8.79Q14.55-9.18 14.33-9.77 14.11-10.35 14.01-10.79L14.01-10.79Q14.01-10.84 13.84-11.3 13.67-11.77 13.5-12.3 13.33-12.84 13.16-13.28 12.99-13.72 12.94-13.77L12.94-13.77Q12.84-14.01 12.77-14.23 12.7-14.45 12.6-14.75L12.6-14.75Q12.4-15.38 12.11-16.04 11.82-16.7 11.52-17.29L11.52-17.29Q11.28-17.77 11.18-18.24 11.08-18.7 10.94-19.14L10.94-19.14Q10.84-19.38 10.77-19.58 10.69-19.78 10.6-20.02L10.6-20.02Q10.5-20.31 10.4-20.63 10.3-20.95 10.21-21.29L10.21-21.29Q9.96-21.19 9.99-20.87 10.01-20.56 9.96-20.31L9.96-20.31Q9.86-19.78 9.86-19.26 9.86-18.75 9.81-18.21L9.81-18.21Q9.72-17.63 9.62-17.09 9.52-16.55 9.47-16.02L9.47-16.02Q9.47-14.7 9.33-13.38L9.33-13.38Q9.23-12.21 9.08-11.01 8.94-9.81 8.89-8.54L8.89-8.54Q8.89-7.62 8.69-6.71 8.5-5.81 8.59-4.83L8.59-4.83Q8.5-4.64 8.5-4.54 8.5-4.44 8.5-4.25L8.5-4.25Q8.5-4 8.47-3.71 8.45-3.42 8.45-3.17L8.45-3.17Q8.45-2.73 8.54-2.59L8.54-2.59Q8.4-2.15 8.4-1.64 8.4-1.12 8.4-0.63L8.4-0.63Q8.3-0.44 8.28-0.24 8.25-0.05 8.11 0.15L8.11 0.15Q8.15 0.98 7.62 0.98L7.62 0.98Q7.47 0.98 7.3 0.9 7.13 0.83 7.03 0.68L7.03 0.68Q6.49 0.73 6.42 0.44 6.35 0.15 6.1 0.2L6.1 0.2Q5.52 0.44 5.44 0.34 5.37 0.24 5.13 0.29L5.13 0.29Q4.74-0.1 4.61-0.05 4.49 0 4.39 0L4.39 0Q3.96-0.15 3.91-0.07 3.86 0 3.71 0L3.71 0Q3.47-0.24 3.05-0.24 2.64-0.24 2.34-0.29L2.34-0.29Q2.29-0.49 2.27-0.66 2.25-0.83 2.25-1.07L2.25-1.07Q2.25-1.37 2.27-1.64 2.29-1.9 2.29-2.2L2.29-2.2Q2.29-2.44 2.27-2.71 2.25-2.98 2.25-3.32L2.25-3.32Q2.25-3.66 2.29-3.98 2.34-4.3 2.34-4.69L2.34-4.69Q2.34-4.83 2.29-4.96 2.25-5.08 2.25-5.27L2.25-5.27Q2.54-5.91 2.51-6.27 2.49-6.64 2.54-6.98L2.54-6.98Q2.64-7.81 2.71-8.62 2.78-9.42 2.88-10.25L2.88-10.25Q2.88-11.62 2.95-12.52 3.03-13.43 3.17-14.36L3.17-14.36Q3.27-14.79 3.34-15.19 3.42-15.58 3.52-16.02L3.52-16.02Q3.61-16.75 3.64-17.55 3.66-18.36 3.76-19.14L3.76-19.14Q3.86-20.36 4-21.56 4.15-22.75 4.25-23.93L4.25-23.93Q4.35-24.85 4.47-25.76 4.59-26.66 4.59-27.49L4.59-27.49Q4.59-27.93 4.71-28.61 4.83-29.3 4.88-29.79L4.88-29.79Q4.98-30.96 5.05-32.08 5.13-33.2 5.13-34.33L5.13-34.33 5.13-34.86Q5.13-34.96 5.22-35.06 5.32-35.16 5.32-35.4L5.32-35.4Q5.32-35.84 5.54-36.01 5.76-36.18 5.91-36.57L5.91-36.57Q6.15-36.57 6.47-36.52 6.79-36.47 6.93-36.23L6.93-36.23Q7.28-36.33 7.62-36.33 7.96-36.33 8.2-36.57L8.2-36.57Q8.5-36.57 8.64-36.43 8.79-36.28 9.03-36.18L9.03-36.18Q9.23-36.28 9.42-36.35 9.62-36.43 9.81-36.52L9.81-36.52Q9.96-36.43 10.03-36.3 10.11-36.18 10.25-36.13L10.25-36.13Q10.99-36.33 11.23-36.18L11.23-36.18Q11.33-35.99 11.35-35.79 11.38-35.6 11.43-35.4L11.43-35.4Q11.91-34.91 12.06-34.3 12.21-33.69 12.6-33.2L12.6-33.2Q12.7-32.91 12.82-32.62 12.94-32.32 13.04-31.93L13.04-31.93 13.18-31.35Q13.38-30.86 13.67-30.18L13.67-30.18Q13.92-29.25 14.11-28.27 14.31-27.29 14.75-26.46L14.75-26.46Q14.79-26.17 14.92-25.76 15.04-25.34 15.14-25.05L15.14-25.05Q15.48-24.22 15.84-23.41 16.21-22.61 16.5-21.68L16.5-21.68Q16.8-20.75 17.02-19.78 17.24-18.8 17.58-17.87L17.58-17.87Q17.87-16.99 18.02-16.6 18.16-16.21 18.41-15.82L18.41-15.82Q18.41-15.67 18.48-15.33 18.55-14.99 18.7-14.62 18.85-14.26 18.99-13.94 19.14-13.62 19.29-13.57L19.29-13.57Q19.43-13.67 19.46-13.87 19.48-14.06 19.63-14.21L19.63-14.21Q19.68-14.75 19.8-15.53 19.92-16.31 20.17-16.8L20.17-16.8Q20.17-17.04 20.29-17.7 20.41-18.36 20.61-19.12 20.8-19.87 20.97-20.51 21.14-21.14 21.29-21.29L21.29-21.29Q21.39-21.92 21.46-22.07 21.53-22.22 21.63-22.31L21.63-22.31Q21.68-22.71 21.83-23.05 21.97-23.39 22.02-23.78L22.02-23.78Q22.12-24.61 22.27-25.15 22.41-25.68 22.66-26.46L22.66-26.46Q22.85-27.15 23.02-27.86 23.19-28.56 23.44-29.25L23.44-29.25Q24.02-31.1 24.49-32.54 24.95-33.98 25.63-35.35L25.63-35.35Q25.78-35.79 25.88-35.89 25.98-35.99 26.07-36.08L26.07-36.08Q26.46-36.23 26.88-36.23 27.29-36.23 27.73-36.18L27.73-36.18Q28.22-36.38 28.47-36.62L28.47-36.62Q28.66-36.38 29.05-36.38L29.05-36.38Q29.54-36.38 29.74-36.67L29.74-36.67Q29.93-36.57 30.05-36.62 30.18-36.67 30.42-36.57L30.42-36.57Q30.52-36.67 30.66-36.79 30.81-36.91 30.96-36.91L30.96-36.91Q31.35-36.43 31.57-36.16 31.79-35.89 31.88-35.55L31.88-35.55Q32.03-35.11 32.06-34.59 32.08-34.08 32.32-33.64L32.32-33.64Q32.28-33.01 32.4-31.71 32.52-30.42 32.69-28.98 32.86-27.54 33.06-26.32 33.25-25.1 33.4-24.8L33.4-24.8Q33.35-24.17 33.45-23.73 33.54-23.29 33.54-22.85L33.54-22.85Q33.54-22.71 33.59-22.24 33.64-21.78 33.69-21.26 33.74-20.75 33.81-20.29 33.89-19.82 33.94-19.63L33.94-19.63Q33.94-18.75 34.23-18.26L34.23-18.26Q34.47-17.04 34.64-15.82 34.81-14.6 34.96-13.33L34.96-13.33Q35.06-12.7 35.08-12.11 35.11-11.52 35.21-10.89L35.21-10.89Q35.25-10.64 35.33-10.4 35.4-10.16 35.45-9.91L35.45-9.91Q35.55-9.42 35.6-8.98 35.64-8.54 35.74-8.11L35.74-8.11Q35.79-7.86 35.89-7.59 35.99-7.32 35.89-7.03L35.89-7.03Q35.99-6.69 35.96-6.3 35.94-5.91 36.13-5.62L36.13-5.62Q36.13-4.59 36.28-3.81L36.28-3.81Q36.33-3.22 36.57-2.64L36.57-2.64Q36.67-2.05 36.74-1.42 36.82-0.78 36.91-0.15ZM61.37-5.86L61.37-5.86Q60.89-5.81 60.79-5.91L60.79-5.91Q60.59-5.81 60.42-5.71 60.25-5.62 60.06-5.47L60.06-5.47Q59.37-5.22 58.71-4.83 58.05-4.44 57.37-4.1L57.37-4.1Q56.98-3.91 56.61-3.78 56.25-3.66 55.86-3.47L55.86-3.47Q55.27-3.17 54.69-2.86 54.1-2.54 53.46-2.29L53.46-2.29Q53.12-2.2 52.81-2.1 52.49-2 52.15-1.9L52.15-1.9Q51.76-1.76 51.44-1.59 51.12-1.42 50.78-1.27L50.78-1.27Q50.53-1.17 50.27-1.1 50-1.03 49.7-0.88L49.7-0.88Q49.46-0.78 49.29-0.63 49.12-0.49 48.87-0.39L48.87-0.39Q48.48-0.24 48.07-0.1 47.65 0.05 47.26 0.24L47.26 0.24Q46.87 0.44 46.7 0.61 46.53 0.78 46.04 0.93L46.04 0.93Q45.55 1.22 45.51 1.25 45.46 1.27 45.36 1.27L45.36 1.27Q45.21 1.37 45.09 1.44 44.97 1.51 44.82 1.61L44.82 1.61Q44.53 1.61 44.24 1.66 43.94 1.71 43.65 1.71L43.65 1.71Q43.31 1.51 43.19 1.32 43.06 1.12 43.06 0.78L43.06 0.78Q42.87 0.54 42.7 0.24 42.53-0.05 42.33-0.29L42.33-0.29Q41.99-0.1 41.92-0.32 41.84-0.54 41.79-0.81 41.75-1.07 41.7-1.34 41.65-1.61 41.6-1.71L41.6-1.71Q41.35-2.64 41.35-3.08L41.35-3.08Q41.35-3.32 41.45-3.39 41.55-3.47 41.55-3.61L41.55-3.61Q41.6-4.1 41.65-4.74 41.7-5.37 41.7-6.05 41.7-6.74 41.7-7.42 41.7-8.11 41.7-8.64L41.7-8.64Q41.7-10.84 41.65-12.92 41.6-14.99 41.6-17.09L41.6-17.09Q41.6-18.07 41.65-19.04 41.7-20.02 41.7-21L41.7-21Q41.7-23.39 41.77-25.73 41.84-28.08 41.84-30.47L41.84-30.47Q41.84-31.45 41.75-32.45 41.65-33.45 41.6-34.47L41.6-34.47Q41.55-35.01 41.65-35.33 41.75-35.64 41.7-35.99L41.7-35.99Q41.84-36.04 42.23-36.04 42.62-36.04 43.04-36.06 43.45-36.08 43.82-36.11 44.19-36.13 44.28-36.18L44.28-36.18Q44.63-35.94 44.97-35.94L44.97-35.94Q45.31-35.94 45.6-36.23L45.6-36.23Q45.85-36.13 45.87-36.08 45.9-36.04 46.14-36.04L46.14-36.04Q46.58-36.08 46.82-36.11 47.07-36.13 47.26-36.13L47.26-36.13Q47.8-35.74 47.92-35.18 48.04-34.62 48.09-34.01 48.14-33.4 48.17-32.79 48.19-32.18 48.19-31.79L48.19-31.79Q48.19-31.49 48.24-31.18 48.29-30.86 48.29-30.52L48.29-30.52Q48.29-30.27 48.26-30.03 48.24-29.79 48.24-29.54L48.24-29.54Q48.24-28.13 48.26-26.66 48.29-25.2 48.29-23.78L48.29-23.78Q48.29-21.24 48.22-18.68 48.14-16.11 48.14-13.57L48.14-13.57Q48.14-13.04 48.19-12.5 48.24-11.96 48.24-11.43L48.24-11.43Q48.24-11.13 48.22-10.84 48.19-10.55 48.19-10.25L48.19-10.25Q48.19-8.45 48.34-6.64L48.34-6.64Q48.53-6.69 49.17-6.91 49.8-7.13 50.49-7.4 51.17-7.67 51.76-7.93 52.34-8.2 52.49-8.35L52.49-8.35Q52.68-8.35 53.02-8.5 53.37-8.64 53.76-8.86 54.15-9.08 54.51-9.28 54.88-9.47 55.03-9.62L55.03-9.62Q54.98-10.6 54.98-11.6 54.98-12.6 54.98-13.57L54.98-13.57Q54.98-16.26 55.05-18.95 55.12-21.63 55.12-24.41L55.12-24.41Q55.12-26.12 55.08-27.83 55.03-29.54 55.03-31.25L55.03-31.25Q55.03-31.79 55.05-32.35 55.08-32.91 55.08-33.45L55.08-33.45Q55.08-34.28 55.05-35.08 55.03-35.89 55.12-36.72L55.12-36.72Q55.61-36.96 55.66-36.96L55.66-36.96Q55.95-36.96 56.08-36.96 56.2-36.96 56.3-36.87L56.3-36.87Q56.44-36.82 56.56-36.84 56.69-36.87 56.83-36.87L56.83-36.87Q57.08-36.87 57.32-36.77 57.57-36.67 57.81-36.67L57.81-36.67Q58.2-36.72 58.23-36.57 58.25-36.43 58.4-36.43L58.4-36.43Q58.79-36.57 58.93-36.43L58.93-36.43Q59.08-36.33 59.47-36.16 59.86-35.99 60.3-35.79 60.74-35.6 61.08-35.42 61.42-35.25 61.42-35.11L61.42-35.11Q61.57-34.33 61.52-33.45 61.47-32.57 61.47-31.79L61.47-31.79Q61.47-31.1 61.52-30.42 61.57-29.74 61.57-29.05L61.57-29.05Q61.57-28.66 61.57-28.27 61.57-27.88 61.62-27.54L61.62-27.54Q61.67-27.29 61.67-27.12 61.67-26.95 61.67-26.76L61.67-26.76Q61.67-26.51 61.77-26.12L61.77-26.12Q61.72-25.88 61.72-25.61 61.72-25.34 61.72-25.1L61.72-25.1Q61.72-24.41 61.77-23.68 61.81-22.95 61.81-22.22L61.81-22.22Q61.81-21.73 61.74-21.29 61.67-20.85 61.67-20.41L61.67-20.41 61.72-19.48Q61.72-18.99 61.77-18.51 61.81-18.02 61.81-17.48L61.81-17.48Q61.81-17.24 61.79-16.99 61.77-16.75 61.72-16.5L61.72-16.5Q61.67-16.26 61.67-15.97 61.67-15.67 61.67-15.43L61.67-15.43Q61.67-14.75 61.72-14.06 61.77-13.38 61.77-12.7L61.77-12.7Q61.77-12.26 61.74-11.84 61.72-11.43 61.72-10.99L61.72-10.99Q61.72-10.11 61.79-9.18 61.86-8.25 61.86-7.37L61.86-7.37Q61.86-6.98 61.77-6.54 61.67-6.1 61.37-5.86ZM78.27-36.33L78.27-36.33Q78.61-35.69 78.61-34.86L78.61-34.86Q78.61-34.13 78.32-33.3 78.02-32.47 77.39-32.03L77.39-32.03Q76.95-31.05 76.53-30.44 76.12-29.83 75.73-29.25L75.73-29.25Q75.58-28.91 75.43-28.59 75.29-28.27 75.04-27.93L75.04-27.93Q74.9-27.69 74.41-26.95 73.92-26.22 73.41-25.42 72.9-24.61 72.5-23.88 72.11-23.14 72.11-22.95L72.11-22.95Q72.11-22.75 72.58-22.46 73.04-22.17 73.19-22.02L73.19-22.02Q73.43-21.78 73.65-21.53 73.87-21.29 74.12-21.04L74.12-21.04Q74.65-20.61 75.17-20.17 75.68-19.73 76.22-19.19L76.22-19.19Q77.24-18.26 78.36-17.43 79.49-16.6 80.37-15.48L80.37-15.48Q81.2-15.23 81.44-14.31 81.68-13.38 81.59-12.55L81.59-12.55Q81.68-12.4 81.76-12.26 81.83-12.11 81.93-11.91L81.93-11.91Q81.93-11.13 81.71-10.77 81.49-10.4 81.25-9.86L81.25-9.86Q81-9.38 80.93-8.89 80.85-8.4 80.61-8.01L80.61-8.01Q80.51-7.86 80.34-7.76 80.17-7.67 80.07-7.47L80.07-7.47Q79.88-7.13 79.76-6.67 79.63-6.2 79.44-5.81L79.44-5.81Q79.29-5.42 79.07-5.03 78.85-4.64 78.71-4.25L78.71-4.25Q78.61-4 78.54-3.66 78.46-3.32 78.07-3.17L78.07-3.17Q77.83-2.29 77.41-1.46 77-0.63 76.75 0.24L76.75 0.24Q76.31 0.39 75.65 0.81 75 1.22 74.6 1.22L74.6 1.22Q74.46 1.22 74.36 1.07 74.26 0.93 74.07 0.83L74.07 0.83Q73.97 0.78 73.8 0.83 73.63 0.88 73.53 0.88L73.53 0.88Q73.29 0.88 73.16 0.68 73.04 0.49 72.85 0.39L72.85 0.39Q72.7 0.44 72.55 0.49 72.41 0.54 72.26 0.54L72.26 0.54Q71.92 0.54 71.87 0.37 71.82 0.2 71.58 0.05L71.58 0.05Q70.99-0.24 70.89-0.49 70.8-0.73 70.6-0.83L70.6-0.83Q70.94-2.1 71.53-3.25 72.11-4.39 72.65-5.57L72.65-5.57Q72.8-5.96 73.02-6.3 73.24-6.64 73.43-7.03L73.43-7.03Q73.58-7.37 73.87-7.91 74.16-8.45 74.41-9.03 74.65-9.62 74.85-10.13 75.04-10.64 75.04-10.99L75.04-10.99Q75.04-11.67 74.65-12.01L74.65-12.01Q73.24-13.18 71.99-14.4 70.75-15.63 69.38-16.89L69.38-16.89Q68.5-17.68 67.48-18.51L67.48-18.51Q67.28-18.65 67.18-18.95 67.08-19.24 66.89-19.48L66.89-19.48Q66.79-19.68 66.6-19.78 66.4-19.87 66.3-20.07L66.3-20.07Q66.16-20.26 66.11-20.53 66.06-20.8 65.82-20.95L65.82-20.95Q65.57-21.19 65.23-21.24 64.89-21.29 64.64-21.53L64.64-21.53Q64.79-21.68 64.77-21.85 64.74-22.02 64.74-22.17L64.74-22.17Q64.74-22.51 65.03-22.66 65.33-22.8 65.33-23.19L65.33-23.19Q65.52-23.58 65.62-23.68L65.62-23.68Q66.16-25 66.84-26.22 67.52-27.44 68.26-28.66L68.26-28.66Q68.5-29.05 68.72-29.42 68.94-29.79 69.18-30.18L69.18-30.18Q69.33-30.52 69.45-30.79 69.58-31.05 69.82-31.3L69.82-31.3Q70.5-32.08 70.97-32.76 71.43-33.45 71.67-34.42L71.67-34.42Q71.72-34.67 71.87-35.11 72.02-35.55 72.24-35.99 72.46-36.43 72.7-36.77 72.94-37.11 73.24-37.11L73.24-37.11Q73.48-37.11 73.95-36.91 74.41-36.72 74.75-36.62L74.75-36.62Q75.04-36.52 75.36-36.45 75.68-36.38 75.97-36.38L75.97-36.38Q76.17-36.38 76.36-36.5 76.56-36.62 76.8-36.62L76.8-36.62Q77.19-36.62 77.53-36.5 77.88-36.38 78.27-36.33ZM100.29-5.62L100.29-5.62Q100.19-5.32 100.19-5.08L100.19-5.08Q100.19-4.79 100.26-4.49 100.33-4.2 100.33-3.91L100.33-3.91Q100.24-3.03 100.19-2.83L100.19-2.83Q99.89-2.59 98.99-2.27 98.09-1.95 96.84-1.64 95.6-1.32 94.16-1 92.72-0.68 91.4-0.39 90.08-0.1 88.98 0.12 87.88 0.34 87.35 0.44L87.35 0.44Q87.1 0.49 86.88 0.56 86.66 0.63 86.42 0.73L86.42 0.73Q86.17 0.78 85.93 0.76 85.69 0.73 85.44 0.83L85.44 0.83Q85.3 0.83 85.17 0.68 85.05 0.54 84.95 0.44L84.95 0.44Q84.95 0.15 84.86 0 84.76-0.15 84.64-0.24 84.51-0.34 84.42-0.46 84.32-0.59 84.32-0.88L84.32-0.88Q84.22-1.27 84.05-1.49 83.88-1.71 83.88-1.9L83.88-1.9Q83.68-2.54 83.68-3.03L83.68-3.03Q83.68-3.27 83.73-3.42 83.78-3.56 83.88-3.71L83.88-3.71Q84.17-3.81 84.32-3.96 84.47-4.1 84.71-4.2L84.71-4.2Q85-4.35 85.54-4.47 86.08-4.59 86.71-4.74 87.35-4.88 87.93-5.03 88.52-5.18 88.91-5.32L88.91-5.32Q89.06-5.37 89.2-5.37 89.35-5.37 89.45-5.47L89.45-5.47Q89.35-6.25 89.32-7.03 89.3-7.81 89.2-8.54L89.2-8.54Q89.2-8.89 89.15-9.23 89.1-9.57 89.1-9.86L89.1-9.86 89.15-10.89Q89.15-12.74 89.01-14.6 88.86-16.46 88.86-18.31L88.86-18.31 88.86-19.97Q88.86-20.36 88.84-20.7 88.81-21.04 88.81-21.44L88.81-21.44Q88.81-22.36 88.84-23.22 88.86-24.07 88.86-25L88.86-25 88.86-29.49Q87.79-29.74 86.86-29.47 85.93-29.2 84.95-29.1L84.95-29.1Q84.61-29.44 84.56-29.83L84.56-29.83Q84.17-30.37 84.03-30.52 83.88-30.66 83.68-31.35L83.68-31.35Q83.34-32.03 83.12-32.2 82.9-32.37 82.9-32.76L82.9-32.76Q82.9-33.01 83.02-33.11 83.15-33.2 83.24-33.45L83.24-33.45Q83.68-33.64 83.76-33.72 83.83-33.79 83.93-33.84L83.93-33.84Q84.42-34.18 85.05-34.33 85.69-34.47 86.27-34.67L86.27-34.67Q86.76-34.81 87.2-35.01 87.64-35.21 88.18-35.35L88.18-35.35Q88.81-35.55 89.45-35.74 90.08-35.94 90.67-36.08L90.67-36.08Q91.06-36.18 91.42-36.16 91.79-36.13 92.18-36.38L92.18-36.38Q92.81-36.28 93.52-36.4 94.23-36.52 95.06-36.72 95.89-36.91 96.67-37.06 97.45-37.21 97.84-37.3L97.84-37.3Q98.09-37.21 98.19-37.06 98.28-36.91 98.48-36.87L98.48-36.87Q98.53-36.72 98.58-36.5 98.63-36.28 98.77-36.18L98.77-36.18Q98.77-35.64 99.02-35.4L99.02-35.4Q98.97-34.91 99.19-34.3 99.41-33.69 99.41-33.15L99.41-33.15Q99.16-32.42 98.6-32.23 98.04-32.03 97.38-31.88 96.72-31.74 96.09-31.62 95.45-31.49 95.06-31.35L95.06-31.35Q95.06-30.66 95.09-29.93 95.11-29.2 95.11-28.47L95.11-28.47Q95.11-27.78 95.09-27.1 95.06-26.42 95.06-25.73L95.06-25.73Q95.06-24.71 95.04-23.63 95.01-22.56 95.01-21.48L95.01-21.48Q95.01-19.97 95.06-18.46 95.11-16.94 95.21-15.43L95.21-15.43Q95.26-15.19 95.26-14.7L95.26-14.7Q95.26-12.74 95.33-10.86 95.4-8.98 95.6-6.98L95.6-6.98Q96.23-6.93 96.57-7.18L96.57-7.18Q96.82-7.18 97.04-7.28 97.26-7.37 97.45-7.47L97.45-7.47Q97.75-7.52 98.26-7.64 98.77-7.76 98.92-7.76L98.92-7.76Q99.36-7.71 99.46-7.76L99.46-7.76Q99.6-7.47 99.89-7.32L99.89-7.32Q99.99-6.88 100.07-6.47 100.14-6.05 100.29-5.62ZM116.05-35.94L116.05-35.94Q116.2-36.04 116.32-36.13 116.45-36.23 116.64-36.28L116.64-36.28Q116.88-36.18 117.13-36.04 117.37-35.89 117.62-35.79L117.62-35.79Q118.45-34.96 118.98-33.64L118.98-33.64Q119.23-33.11 119.69-32.67 120.16-32.23 120.45-31.64L120.45-31.64Q120.64-31.25 120.84-30.96 121.03-30.66 121.28-30.27L121.28-30.27Q122.06-29.2 122.77-27.93 123.48-26.66 124.21-25.54L124.21-25.54Q124.89-24.32 125.55-23.12 126.21-21.92 126.94-20.7L126.94-20.7Q126.94-20.46 127.14-20.17L127.14-20.17Q127.19-19.38 127.14-19.19L127.14-19.19Q127.33-18.85 127.65-18.65 127.97-18.46 128.21-18.21L128.21-18.21Q128.26-17.82 128.09-17.5 127.92-17.19 127.87-16.8L127.87-16.8Q127.24-15.72 126.5-14.6L126.5-14.6Q126.11-14.06 125.8-13.48 125.48-12.89 125.09-12.35L125.09-12.35Q124.84-11.82 124.7-11.55 124.55-11.28 124.45-11.04L124.45-11.04Q123.96-10.5 123.77-9.84 123.57-9.18 123.04-8.64L123.04-8.64Q123.13-8.06 123.79-7.4 124.45-6.74 124.89-6.35L124.89-6.35Q125.04-6.05 125.23-5.83 125.43-5.62 125.62-5.37L125.62-5.37Q125.72-5.27 125.84-5.18 125.97-5.08 126.11-4.98L126.11-4.98Q126.16-4.64 126.38-4.42 126.6-4.2 126.89-4.1L126.89-4.1Q127.09-3.56 127.26-3.44 127.43-3.32 127.43-3.17L127.43-3.17Q127.43-2.93 127.33-2.64L127.33-2.64Q127.04-2.29 126.7-1.93 126.36-1.56 125.97-1.32L125.97-1.32Q125.82-1.03 125.65-0.61 125.48-0.2 125.26 0.22 125.04 0.63 124.79 0.98 124.55 1.32 124.31 1.42L124.31 1.42Q123.67 1.07 123.67 0.73L123.67 0.73Q123.53 0.68 123.21 0.37 122.89 0.05 122.89-0.05L122.89-0.05Q121.67-0.73 120.94-1.86L120.94-1.86Q120.79-1.95 120.67-2.03 120.55-2.1 120.4-2.15L120.4-2.15Q120.3-2.39 120.13-2.51 119.96-2.64 119.86-2.88L119.86-2.88Q119.72-2.98 119.47-2.64 119.23-2.29 118.96-1.86 118.69-1.42 118.5-1 118.3-0.59 118.25-0.49L118.25-0.49Q117.96-0.24 117.69 0.02 117.42 0.29 117.13 0.54L117.13 0.54Q116.54 0.98 116.32 1.17 116.1 1.37 116.01 1.76L116.01 1.76Q115.57 1.95 115.47 2 115.37 2.05 115.27 2.05L115.27 2.05Q115.03 2.05 114.71 1.73 114.39 1.42 114.2 1.27L114.2 1.27Q113.95 1.22 113.69 1.17 113.42 1.12 113.22 0.88L113.22 0.88Q112.93 0.34 112.81-0.02 112.69-0.39 112.29-0.54L112.29-0.54Q112.29-0.78 112.17-0.88 112.05-0.98 111.9-1.17L111.9-1.17Q111.51-1.71 111.2-2.44 110.88-3.17 110.49-3.81L110.49-3.81Q110.1-4.39 109.61-4.98 109.12-5.57 108.68-6.1L108.68-6.1Q108.53-6.3 108.36-6.49 108.19-6.69 108.05-6.88L108.05-6.88Q107.75-7.42 107.44-7.93 107.12-8.45 106.78-8.94L106.78-8.94Q106.68-9.08 106.56-9.2 106.44-9.33 106.34-9.52L106.34-9.52Q106.04-9.91 105.85-10.3 105.65-10.69 105.41-11.13L105.41-11.13Q105.02-11.96 104.51-12.67 103.99-13.38 103.6-14.16L103.6-14.16Q103.21-15.04 102.82-15.75 102.43-16.46 102.14-17.14L102.14-17.14Q102.14-17.29 102.11-17.43 102.09-17.58 102.04-17.77L102.04-17.77Q102.28-18.41 102.41-18.65 102.53-18.9 102.53-19.14L102.53-19.14Q102.63-19.29 102.75-19.46 102.87-19.63 102.92-19.87L102.92-19.87Q104.09-21.44 105.09-23.1 106.09-24.76 107.12-26.37L107.12-26.37Q108.24-28.03 109.19-29.71 110.15-31.4 111.22-33.01L111.22-33.01Q111.22-33.3 111.34-33.42 111.46-33.54 111.46-33.74L111.46-33.74Q111.71-33.98 111.9-34.33 112.1-34.67 112.2-35.01L112.2-35.01Q112.34-35.25 112.51-35.5 112.69-35.74 112.78-36.04L112.78-36.04Q112.98-36.18 113.1-36.38 113.22-36.57 113.37-36.77L113.37-36.77Q113.61-36.87 113.71-37.01 113.81-37.16 114.2-37.16L114.2-37.16Q114.35-37.16 114.47-37.13 114.59-37.11 114.74-37.16L114.74-37.16Q114.98-37.06 115.1-36.87 115.22-36.67 115.52-36.62L115.52-36.62Q115.62-36.38 115.79-36.25 115.96-36.13 116.05-35.94ZM118.89-22.8L118.59-23.24Q118.15-23.93 117.79-24.58 117.42-25.24 116.93-25.83L116.93-25.83Q116.88-25.98 116.71-26.29 116.54-26.61 116.32-26.9 116.1-27.2 115.86-27.44 115.62-27.69 115.47-27.69L115.47-27.69Q115.13-27.44 114.83-27.25L114.83-27.25Q114.64-26.66 114.3-26.07 113.95-25.49 113.61-24.95L113.61-24.95Q113.27-24.56 113-24.24 112.73-23.93 112.59-23.39L112.59-23.39Q112.34-23.14 112.17-22.92 112-22.71 111.81-22.46L111.81-22.46Q111.66-21.97 111.29-21.39 110.93-20.8 110.54-20.21 110.15-19.63 109.76-19.04 109.37-18.46 109.07-17.97L109.07-17.97Q108.73-17.53 108.71-17.33 108.68-17.14 108.63-16.94L108.63-16.94Q108.88-16.26 109.32-15.67 109.76-15.09 110.1-14.45L110.1-14.45Q110.49-13.77 110.78-13.13 111.07-12.5 111.61-11.96L111.61-11.96Q112.49-10.84 113.25-9.59 114-8.35 115.03-7.37L115.03-7.37Q115.37-7.67 115.47-8.11L115.47-8.11Q115.81-8.5 116.1-8.94 116.4-9.38 116.64-9.77L116.64-9.77Q116.84-10.25 117.13-10.74L117.13-10.74Q117.57-11.43 118.03-12.04 118.5-12.65 118.79-13.33L118.79-13.33Q119.08-13.72 119.28-14.14 119.47-14.55 119.86-14.89L119.86-14.89Q119.96-15.48 120.28-15.89 120.6-16.31 120.89-16.75L120.89-16.75Q120.99-17.09 121.13-17.33 121.28-17.58 121.43-17.87L121.43-17.87Q121.08-18.85 120.57-19.75 120.06-20.65 119.52-21.53L119.52-21.53Q119.37-21.88 119.23-22.22 119.08-22.56 118.89-22.8L118.89-22.8ZM151.7-5.86L151.7-5.86Q151.21-5.81 151.11-5.91L151.11-5.91Q150.92-5.81 150.74-5.71 150.57-5.62 150.38-5.47L150.38-5.47Q149.69-5.22 149.04-4.83 148.38-4.44 147.69-4.1L147.69-4.1Q147.3-3.91 146.94-3.78 146.57-3.66 146.18-3.47L146.18-3.47Q145.59-3.17 145.01-2.86 144.42-2.54 143.79-2.29L143.79-2.29Q143.44-2.2 143.13-2.1 142.81-2 142.47-1.9L142.47-1.9Q142.08-1.76 141.76-1.59 141.44-1.42 141.1-1.27L141.1-1.27Q140.86-1.17 140.59-1.1 140.32-1.03 140.03-0.88L140.03-0.88Q139.78-0.78 139.61-0.63 139.44-0.49 139.2-0.39L139.2-0.39Q138.81-0.24 138.39-0.1 137.98 0.05 137.59 0.24L137.59 0.24Q137.19 0.44 137.02 0.61 136.85 0.78 136.36 0.93L136.36 0.93Q135.88 1.22 135.83 1.25 135.78 1.27 135.68 1.27L135.68 1.27Q135.53 1.37 135.41 1.44 135.29 1.51 135.14 1.61L135.14 1.61Q134.85 1.61 134.56 1.66 134.26 1.71 133.97 1.71L133.97 1.71Q133.63 1.51 133.51 1.32 133.39 1.12 133.39 0.78L133.39 0.78Q133.19 0.54 133.02 0.24 132.85-0.05 132.65-0.29L132.65-0.29Q132.31-0.1 132.24-0.32 132.17-0.54 132.12-0.81 132.07-1.07 132.02-1.34 131.97-1.61 131.92-1.71L131.92-1.71Q131.68-2.64 131.68-3.08L131.68-3.08Q131.68-3.32 131.77-3.39 131.87-3.47 131.87-3.61L131.87-3.61Q131.92-4.1 131.97-4.74 132.02-5.37 132.02-6.05 132.02-6.74 132.02-7.42 132.02-8.11 132.02-8.64L132.02-8.64Q132.02-10.84 131.97-12.92 131.92-14.99 131.92-17.09L131.92-17.09Q131.92-18.07 131.97-19.04 132.02-20.02 132.02-21L132.02-21Q132.02-23.39 132.09-25.73 132.17-28.08 132.17-30.47L132.17-30.47Q132.17-31.45 132.07-32.45 131.97-33.45 131.92-34.47L131.92-34.47Q131.87-35.01 131.97-35.33 132.07-35.64 132.02-35.99L132.02-35.99Q132.17-36.04 132.56-36.04 132.95-36.04 133.36-36.06 133.78-36.08 134.14-36.11 134.51-36.13 134.61-36.18L134.61-36.18Q134.95-35.94 135.29-35.94L135.29-35.94Q135.63-35.94 135.93-36.23L135.93-36.23Q136.17-36.13 136.19-36.08 136.22-36.04 136.46-36.04L136.46-36.04Q136.9-36.08 137.15-36.11 137.39-36.13 137.59-36.13L137.59-36.13Q138.12-35.74 138.24-35.18 138.37-34.62 138.42-34.01 138.46-33.4 138.49-32.79 138.51-32.18 138.51-31.79L138.51-31.79Q138.51-31.49 138.56-31.18 138.61-30.86 138.61-30.52L138.61-30.52Q138.61-30.27 138.59-30.03 138.56-29.79 138.56-29.54L138.56-29.54Q138.56-28.13 138.59-26.66 138.61-25.2 138.61-23.78L138.61-23.78Q138.61-21.24 138.54-18.68 138.46-16.11 138.46-13.57L138.46-13.57Q138.46-13.04 138.51-12.5 138.56-11.96 138.56-11.43L138.56-11.43Q138.56-11.13 138.54-10.84 138.51-10.55 138.51-10.25L138.51-10.25Q138.51-8.45 138.66-6.64L138.66-6.64Q138.85-6.69 139.49-6.91 140.12-7.13 140.81-7.4 141.49-7.67 142.08-7.93 142.66-8.2 142.81-8.35L142.81-8.35Q143.01-8.35 143.35-8.5 143.69-8.64 144.08-8.86 144.47-9.08 144.84-9.28 145.2-9.47 145.35-9.62L145.35-9.62Q145.3-10.6 145.3-11.6 145.3-12.6 145.3-13.57L145.3-13.57Q145.3-16.26 145.37-18.95 145.45-21.63 145.45-24.41L145.45-24.41Q145.45-26.12 145.4-27.83 145.35-29.54 145.35-31.25L145.35-31.25Q145.35-31.79 145.37-32.35 145.4-32.91 145.4-33.45L145.4-33.45Q145.4-34.28 145.37-35.08 145.35-35.89 145.45-36.72L145.45-36.72Q145.93-36.96 145.98-36.96L145.98-36.96Q146.28-36.96 146.4-36.96 146.52-36.96 146.62-36.87L146.62-36.87Q146.76-36.82 146.89-36.84 147.01-36.87 147.16-36.87L147.16-36.87Q147.4-36.87 147.64-36.77 147.89-36.67 148.13-36.67L148.13-36.67Q148.52-36.72 148.55-36.57 148.57-36.43 148.72-36.43L148.72-36.43Q149.11-36.57 149.26-36.43L149.26-36.43Q149.4-36.33 149.79-36.16 150.18-35.99 150.62-35.79 151.06-35.6 151.4-35.42 151.75-35.25 151.75-35.11L151.75-35.11Q151.89-34.33 151.84-33.45 151.79-32.57 151.79-31.79L151.79-31.79Q151.79-31.1 151.84-30.42 151.89-29.74 151.89-29.05L151.89-29.05Q151.89-28.66 151.89-28.27 151.89-27.88 151.94-27.54L151.94-27.54Q151.99-27.29 151.99-27.12 151.99-26.95 151.99-26.76L151.99-26.76Q151.99-26.51 152.09-26.12L152.09-26.12Q152.04-25.88 152.04-25.61 152.04-25.34 152.04-25.1L152.04-25.1Q152.04-24.41 152.09-23.68 152.14-22.95 152.14-22.22L152.14-22.22Q152.14-21.73 152.06-21.29 151.99-20.85 151.99-20.41L151.99-20.41 152.04-19.48Q152.04-18.99 152.09-18.51 152.14-18.02 152.14-17.48L152.14-17.48Q152.14-17.24 152.11-16.99 152.09-16.75 152.04-16.5L152.04-16.5Q151.99-16.26 151.99-15.97 151.99-15.67 151.99-15.43L151.99-15.43Q151.99-14.75 152.04-14.06 152.09-13.38 152.09-12.7L152.09-12.7Q152.09-12.26 152.06-11.84 152.04-11.43 152.04-10.99L152.04-10.99Q152.04-10.11 152.11-9.18 152.18-8.25 152.18-7.37L152.18-7.37Q152.18-6.98 152.09-6.54 151.99-6.1 151.7-5.86ZM175.08-6.84L175.08-6.84Q175.47-6.2 175.67-5.62 175.86-5.03 175.86-4.79L175.86-4.79Q175.86-4.44 175.74-4.22 175.62-4 175.42-3.76L175.42-3.76Q173.47-2.93 171.54-2.22 169.61-1.51 167.61-0.83L167.61-0.83Q167.12-0.68 166.66-0.51 166.2-0.34 165.66-0.24L165.66-0.24Q165.56-0.15 165.32-0.05 165.07 0.05 164.76 0.15 164.44 0.24 164.15 0.32 163.85 0.39 163.75 0.39L163.75 0.39Q163.66 0.15 163.56 0.1 163.46 0.05 163.36 0L163.36 0Q163.12 0 163.05 0.17 162.97 0.34 162.73 0.44L162.73 0.44Q162.49 0.44 162.29 0.46 162.09 0.49 161.95 0.39L161.95 0.39Q161.56 0.49 161.24 0.73 160.92 0.98 160.53 1.07L160.53 1.07Q159.8 0.88 159.63 0.9 159.46 0.93 159.26 0.98L159.26 0.98Q158.92 0.68 158.94 0.15 158.97-0.39 158.68-0.73L158.68-0.73Q158.68-1.37 158.58-1.44 158.48-1.51 158.48-1.61L158.48-1.61Q158.48-1.95 158.53-2.25 158.58-2.54 158.48-2.88L158.48-2.88Q158.68-3.71 158.63-4.49 158.58-5.27 158.68-6.05L158.68-6.05Q158.68-6.3 158.7-6.52 158.73-6.74 158.73-6.98L158.73-6.98Q158.73-7.71 158.82-7.89 158.92-8.06 158.92-8.3L158.92-8.3Q158.92-8.64 158.9-8.96 158.87-9.28 158.87-9.67L158.87-9.67Q158.87-10.35 158.9-11.01 158.92-11.67 158.92-12.4L158.92-12.4Q158.92-14.26 158.68-16.11 158.43-17.97 158.43-19.82L158.43-19.82Q158.43-22.07 158.19-24.27 157.94-26.46 157.94-28.71L157.94-28.71Q157.94-29.1 157.94-29.81 157.94-30.52 157.94-31.27 157.94-32.03 157.97-32.71 157.99-33.4 158.04-33.69L158.04-33.69Q158.04-33.74 158.33-33.84 158.63-33.94 158.73-33.94L158.73-33.94Q158.97-33.94 159.12-33.81 159.26-33.69 159.46-33.59L159.46-33.59Q160.34-33.69 160.51-33.76 160.68-33.84 160.78-33.84L160.78-33.84Q161.07-33.84 161.24-33.69 161.41-33.54 161.51-33.54L161.51-33.54Q162.34-33.74 162.41-33.59 162.49-33.45 162.73-33.45L162.73-33.45Q163.36-33.64 163.51-33.59 163.66-33.54 163.8-33.54L163.8-33.54Q164.05-33.54 164.34-33.72 164.63-33.89 164.88-33.98L164.88-33.98Q165.71-34.23 166.24-34.47L166.24-34.47Q166.98-34.91 167.34-35.06 167.71-35.21 168.1-35.4L168.1-35.4Q168.93-35.74 169.69-36.11 170.44-36.47 171.27-36.87L171.27-36.87Q171.42-36.87 171.59-36.89 171.76-36.91 171.86-37.01L171.86-37.01Q172.01-36.96 172.18-36.96 172.35-36.96 172.49-36.96L172.49-36.96Q172.98-36.77 173.13-36.72L173.13-36.72Q173.32-36.43 173.5-36.16 173.67-35.89 173.91-35.64L173.91-35.64Q174.15-35.21 174.3-35.21L174.3-35.21Q174.3-35.06 174.15-34.89 174.01-34.72 174.01-34.57L174.01-34.57Q174.4-33.89 174.64-33.3 174.89-32.71 174.89-32.47L174.89-32.47Q174.89-32.13 174.79-31.91 174.69-31.69 174.55-31.45L174.55-31.45Q172.69-30.57 170.81-29.71 168.93-28.86 166.98-28.03L166.98-28.03Q166.49-27.83 166.05-27.61 165.61-27.39 165.07-27.29L165.07-27.29Q164.98-27.2 164.63-27.12 164.29-27.05 164.1-27.05L164.1-27.05Q164.19-26.22 164.22-25.42 164.24-24.61 164.29-23.78L164.29-23.78Q164.34-23.1 164.46-22.34 164.58-21.58 164.68-20.85L164.68-20.85Q166.29-21.53 167.88-22.22 169.47-22.9 171.08-23.58L171.08-23.58Q171.37-23.54 171.69-23.49 172.01-23.44 172.3-23.34L172.3-23.34Q172.4-23.24 172.49-23.1 172.59-22.95 172.74-22.85L172.74-22.85Q172.69-22.61 173.06-22.12 173.42-21.63 173.42-21.39L173.42-21.39Q173.42-21 173.52-20.92 173.62-20.85 173.72-20.51L173.72-20.51Q173.76-20.02 173.72-19.97L173.72-19.97Q173.96-19.73 174.11-19.48 174.25-19.24 174.25-18.9L174.25-18.9Q173.57-18.07 172.89-17.8 172.2-17.53 171.52-17.24L171.52-17.24Q171.27-17.14 171.01-16.97 170.74-16.8 170.49-16.7L170.49-16.7Q170.1-16.55 169.74-16.43 169.37-16.31 168.98-16.11L168.98-16.11Q168.34-15.77 167.69-15.36 167.03-14.94 166.34-14.79L166.34-14.79Q165.81-14.65 165.63-14.48 165.46-14.31 165.07-14.01L165.07-14.01 165.07-12.7 165.07-10.25Q165.07-9.77 165.07-9.25 165.07-8.74 165.02-8.2L165.02-8.2Q164.93-7.71 164.93-7.37L164.93-7.37 164.93-6.59Q165.17-6.69 165.41-6.76 165.66-6.84 165.9-6.93L165.9-6.93Q166.1-6.98 166.27-6.98 166.44-6.98 166.64-7.08L166.64-7.08Q166.88-7.13 167.03-7.18 167.17-7.23 167.37-7.32L167.37-7.32Q168.1-7.71 168.49-7.84 168.88-7.96 169.27-8.11L169.27-8.11Q170.1-8.4 170.88-8.72 171.66-9.03 172.45-9.33L172.45-9.33Q172.93-9.23 173.13-9.47L173.13-9.47Q173.37-9.42 173.54-9.38 173.72-9.33 173.96-9.33L173.96-9.33Q174.55-8.79 174.69-8.5 174.84-8.2 175.08-7.96L175.08-7.96Q175.33-7.52 175.42-7.52L175.42-7.52Q175.42-7.42 175.28-7.2 175.13-6.98 175.08-6.84Z" opacity="1" transform="matrix(1,0,0,1,0,0)" fill="#31c48d" class="undefined-text-0" data-fill-palette-color="primary" id="text-0"></path></svg></g></svg></g><g transform="matrix(1,0,0,1,75.54432,110.8120304536333)"><svg viewBox="0 0 244.43135999999998 24.066035525051472" height="24.066035525051472" width="244.43135999999998"><g transform="matrix(1,0,0,1,8,0)"><svg width="228.43135999999998" viewBox="1.4200000762939453 -33.88999938964844 426.79998779296875 44.970001220703125" height="24.066035525051472" data-palette-color="#adbfb8"><path d="M7.42-32.03L7.42-32.03Q9.62-32.03 15.04-32.23 20.46-32.42 23.19-32.42L23.19-32.42Q23.39-31.01 23.95-28.69 24.51-26.37 24.61-25.78L24.61-25.78Q24.37-25.54 23.73-25.54 23.1-25.54 23.05-25.88L23.05-25.88Q22.31-28.56 21-29.32 19.68-30.08 17.38-30.08L17.38-30.08 14.11-30.08Q9.91-30.08 9.81-29.44L9.81-29.44Q9.57-28.27 9.57-25.34L9.57-25.34 9.57-17.53Q9.57-17.24 11.67-17.24L11.67-17.24 14.26-17.24Q15.63-17.24 16.24-17.24 16.85-17.24 17.53-17.43 18.21-17.63 18.41-17.68 18.6-17.72 18.92-18.31 19.24-18.9 19.29-19.17 19.34-19.43 19.63-20.56L19.63-20.56Q19.68-20.9 20.36-20.9L20.36-20.9Q20.95-20.9 21.19-20.65L21.19-20.65 21.19-11.43Q21-11.23 20.41-11.23L20.41-11.23Q19.78-11.23 19.63-11.62L19.63-11.62Q19.29-12.94 19.04-13.6 18.8-14.26 18.68-14.38 18.55-14.5 18.26-14.7L18.26-14.7Q17.63-15.09 13.09-15.09L13.09-15.09Q9.57-15.09 9.57-14.65L9.57-14.65 9.57-7.08Q9.57-3.91 10.01-2.64L10.01-2.64Q10.16-2.15 13.33-2.15L13.33-2.15 15.67-2.15Q20.21-2.15 21.83-2.98L21.83-2.98Q22.56-3.37 23.46-4.71 24.37-6.05 24.9-7.91L24.9-7.91Q25-8.2 25.59-8.2L25.59-8.2Q26.51-8.2 26.81-7.91L26.81-7.91Q26.56-7.28 26.05-5.88 25.54-4.49 25.24-3.64 24.95-2.78 24.61-1.66 24.27-0.54 24.17 0.2L24.17 0.2Q21.68 0.2 16.31 0.1 10.94 0 7.52 0L7.52 0 1.61 0.15Q1.46 0 1.46-0.63 1.46-1.27 1.61-1.27L1.61-1.27Q2.25-1.27 3.49-1.61 4.74-1.95 4.98-2.39L4.98-2.39Q5.32-2.98 5.32-6.98L5.32-6.98 5.32-25.44Q5.32-28.32 4.98-29.64L4.98-29.64Q4.83-30.03 3.54-30.37 2.25-30.71 1.61-30.71L1.61-30.71Q1.42-30.71 1.42-31.3L1.42-31.3Q1.42-31.93 1.61-32.13L1.61-32.13Q4.15-32.03 7.42-32.03ZM39.16-21.29L39.16-21.29Q44.53-21.29 46.58-18.8L46.58-18.8Q46.58-15.53 44.77-15.53L44.77-15.53Q43.94-15.53 43.5-15.89 43.06-16.26 42.38-17.24L42.38-17.24Q40.87-19.48 38.77-19.48L38.77-19.48Q36.77-19.48 35.13-17.58 33.49-15.67 33.49-11.91L33.49-11.91Q33.49-8.01 35.42-5.42 37.35-2.83 40.77-2.83L40.77-2.83Q41.79-2.83 42.72-3.03 43.65-3.22 44.31-3.49 44.97-3.76 45.43-4.03 45.9-4.3 46.24-4.54L46.24-4.54 46.58-4.79Q46.87-4.79 46.87-4.15L46.87-4.15Q46.87-3.76 46.58-3.27L46.58-3.27Q45.6-1.9 43.7-0.81 41.79 0.29 39.55 0.29L39.55 0.29Q35.5 0.29 32.59-2.76 29.68-5.81 29.68-10.21L29.68-10.21Q29.68-14.7 32.13-17.99 34.57-21.29 39.16-21.29ZM59.52-19.43L59.52-19.43Q56.93-19.43 55.29-17.07 53.66-14.7 53.66-11.28L53.66-11.28Q53.66-7.28 55.73-4.42 57.81-1.56 60.59-1.56L60.59-1.56Q63.18-1.56 64.84-4 66.5-6.45 66.5-9.86L66.5-9.86Q66.5-13.82 64.4-16.63 62.3-19.43 59.52-19.43ZM60.05-21.34L60.05-21.34Q64.45-21.34 67.57-18.16 70.7-14.99 70.7-10.55L70.7-10.55Q70.7-6.05 67.65-2.86 64.59 0.34 60.15 0.34 55.71 0.34 52.58-2.86 49.46-6.05 49.46-10.55L49.46-10.55Q49.46-15.09 52.49-18.21 55.51-21.34 60.05-21.34ZM93.79-16.65L93.79-16.65 93.79-6.88Q93.79-4.79 94.13-3.17L94.13-3.17Q94.23-2.83 94.67-2.64 95.11-2.44 95.6-2.39 96.09-2.34 96.57-2.34L96.57-2.34 97.01-2.29Q97.16-2.25 97.16-1.76L97.16-1.76Q97.16-1.61 97.04-1.29 96.92-0.98 96.77-0.98L96.77-0.98Q96.04-0.93 95.13-0.78 94.23-0.63 93.45-0.44 92.67-0.24 91.98-0.05 91.3 0.15 90.91 0.29L90.91 0.29 90.47 0.39Q90.08 0.39 90.08-0.39L90.08-0.39 90.08-2.88 89.98-3.13Q86.76 0.34 83.59 0.34L83.59 0.34Q81.78 0.34 80.49-0.56 79.19-1.46 78.58-2.95 77.97-4.44 77.73-5.83 77.48-7.23 77.48-8.74L77.48-8.74 77.48-14.89Q77.48-16.8 76.8-17.53L76.8-17.53Q76.31-18.12 75.6-18.33 74.89-18.55 74.43-18.55 73.97-18.55 73.97-18.65L73.97-18.65Q73.97-19.82 74.26-19.87L74.26-19.87Q79.44-20.65 81-21.14L81-21.14Q81.05-21.14 81.14-21.17 81.24-21.19 81.24-21.19L81.24-21.19Q81.44-21.19 81.49-20.78 81.54-20.36 81.49-20.17L81.49-20.17Q81.19-17.82 81.19-16.55L81.19-16.55 81.19-9.96Q81.19-6.2 82.32-4.42 83.44-2.64 85.98-2.64L85.98-2.64Q87.44-2.64 88.76-3.78 90.08-4.93 90.08-5.76L90.08-5.76 90.08-14.89Q90.08-16.8 89.4-17.53L89.4-17.53Q88.91-18.12 88.2-18.33 87.49-18.55 87.03-18.55 86.56-18.55 86.56-18.65L86.56-18.65Q86.56-19.82 86.86-19.87L86.86-19.87Q92.03-20.65 93.6-21.14L93.6-21.14Q93.64-21.14 93.74-21.17 93.84-21.19 93.84-21.19L93.84-21.19Q94.04-21.19 94.08-20.78 94.13-20.36 94.08-20.17L94.08-20.17Q93.79-17.82 93.79-16.65ZM101.7-5.86L101.7-18.26 98.87-18.26Q98.62-18.26 98.62-19.29L98.62-19.29Q98.62-19.58 98.67-19.63L98.67-19.63Q100.09-20.26 101.75-22.22L101.75-22.22Q102.28-22.85 102.8-23.66 103.31-24.46 103.65-25.05 103.99-25.63 103.99-25.68L103.99-25.68Q105.46-25.68 105.46-25.44L105.46-25.44 105.46-20.61Q106.73-20.61 109.32-20.58 111.9-20.56 112.05-20.56L112.05-20.56Q112.44-20.56 112.44-20.12L112.44-20.12Q112.44-19.24 111.95-18.26L111.95-18.26 105.46-18.26 105.46-6.3Q105.46-4.35 106.46-3.17 107.46-2 109.07-2L109.07-2Q110.54-2 112.1-2.93L112.1-2.93Q112.25-3.03 112.54-2.51 112.83-2 112.78-1.95L112.78-1.95Q112.05-1.17 110.54-0.42 109.02 0.34 107.41 0.34L107.41 0.34Q104.97 0.34 103.33-1.27 101.7-2.88 101.7-5.86L101.7-5.86ZM124.11-19.48L124.11-19.48Q121.57-19.48 120.23-17.31 118.88-15.14 118.88-13.72L118.88-13.72Q118.88-13.38 119.18-13.38L119.18-13.38 128.7-13.38Q128.94-13.38 128.94-13.87L128.94-13.87Q128.94-15.43 127.62-17.46 126.31-19.48 124.11-19.48ZM124.6-21.29L124.6-21.29Q126.84-21.29 128.55-20.43 130.26-19.58 131.16-18.24 132.07-16.89 132.48-15.5 132.9-14.11 132.9-12.74L132.9-12.74Q132.9-11.77 132.6-11.55 132.31-11.33 131.48-11.33L131.48-11.33 119.18-11.33Q118.79-11.33 118.79-11.08L118.79-11.08Q118.79-8.01 120.64-5.42 122.5-2.83 126.01-2.83L126.01-2.83Q127.04-2.83 127.97-3.03 128.89-3.22 129.55-3.49 130.21-3.76 130.68-4.03 131.14-4.3 131.48-4.54L131.48-4.54 131.82-4.79Q132.12-4.79 132.12-4.15L132.12-4.15Q132.12-3.76 131.82-3.27L131.82-3.27Q130.85-1.9 128.94-0.81 127.04 0.29 124.79 0.29L124.79 0.29Q120.74 0.29 117.83-2.76 114.93-5.81 114.93-10.21L114.93-10.21Q114.93-15.33 117.69-18.31 120.45-21.29 124.6-21.29ZM148.42-21.34L148.42-21.34Q151.3-21.34 152.23-19.92L152.23-19.92Q152.23-18.21 151.69-17.43 151.16-16.65 150.38-16.65L150.38-16.65Q149.5-16.65 148.76-17.48 148.03-18.31 146.76-18.31L146.76-18.31Q145.25-18.31 144.13-16.89 143-15.48 143-13.92L143-13.92 143-6.59Q143-3.76 143.39-2.25L143.39-2.25Q143.49-1.9 144.69-1.59 145.88-1.27 146.37-1.27L146.37-1.27Q146.52-1.27 146.57-0.68 146.62-0.1 146.52 0.15L146.52 0.15Q141.64-0.1 141.24-0.1L141.24-0.1Q140.95-0.1 135.92 0.15L135.92 0.15Q135.73-0.05 135.73-0.66 135.73-1.27 135.92-1.27L135.92-1.27Q136.51-1.27 137.66-1.59 138.8-1.9 138.9-2.25L138.9-2.25Q139.24-3.66 139.24-5.66L139.24-5.66 139.24-14.89Q139.24-16.8 138.56-17.53L138.56-17.53Q138.07-18.12 137.36-18.33 136.65-18.55 136.19-18.55 135.73-18.55 135.73-18.65L135.73-18.65Q135.73-19.82 136.02-19.87L136.02-19.87Q141.2-20.65 142.76-21.14L142.76-21.14Q142.81-21.14 142.9-21.17 143-21.19 143-21.19L143-21.19Q143.2-21.19 143.25-20.78 143.3-20.36 143.25-20.17L143.25-20.17 142.95-17.72Q143.83-19.04 145.37-20.19 146.91-21.34 148.42-21.34ZM175.96-19.43L175.96-19.43Q173.12-19.43 171.51-16.89 169.9-14.36 169.9-10.99L169.9-10.99Q169.9-7.42 171.81-4.81 173.71-2.2 177.08-2.2L177.08-2.2Q178.74-2.2 179.67-2.95 180.6-3.71 180.6-4.98L180.6-4.98 180.6-16.6Q180.6-17.63 179.5-18.53 178.4-19.43 175.96-19.43ZM176.59-21.48L176.59-21.48Q178.69-21.48 180.25-20.65L180.25-20.65Q180.6-20.65 180.6-21.53L180.6-21.53 180.6-26.81Q180.6-28.47 180.3-29.93L180.3-29.93Q180.06-30.71 177.81-30.71L177.81-30.71 177.37-30.71Q177.08-30.71 177.08-31.25L177.08-31.25Q177.08-32.03 177.37-32.03L177.37-32.03Q178.84-32.18 180.08-32.42 181.33-32.67 182.04-32.91 182.74-33.15 183.23-33.37 183.72-33.59 183.96-33.74L183.96-33.74 184.16-33.89 184.26-33.89Q184.45-33.89 184.65-33.62 184.84-33.35 184.89-33.11L184.89-33.11Q184.36-31.54 184.36-28.86L184.36-28.86 184.36-6.88Q184.36-4.54 184.65-3.17L184.65-3.17Q184.75-2.83 185.19-2.64 185.62-2.44 186.09-2.39 186.55-2.34 186.99-2.34L186.99-2.34 187.43-2.29Q187.58-2.25 187.58-1.71L187.58-1.71Q187.58-0.98 187.28-0.98L187.28-0.98Q186.55-0.93 185.65-0.78 184.75-0.63 183.94-0.46 183.13-0.29 182.45-0.12 181.77 0.05 181.33 0.2L181.33 0.2 180.89 0.29Q180.6 0.29 180.6-0.54L180.6-0.54 180.6-1.12Q180.6-1.42 180.4-1.32L180.4-1.32Q177.67 0.2 175.22 0.2L175.22 0.2Q171.17 0.2 168.44-2.69 165.7-5.57 165.7-9.57L165.7-9.57Q165.7-14.31 169.05-17.9 172.39-21.48 176.59-21.48ZM199.1-19.48L199.1-19.48Q196.56-19.48 195.22-17.31 193.87-15.14 193.87-13.72L193.87-13.72Q193.87-13.38 194.17-13.38L194.17-13.38 203.69-13.38Q203.93-13.38 203.93-13.87L203.93-13.87Q203.93-15.43 202.61-17.46 201.3-19.48 199.1-19.48ZM199.59-21.29L199.59-21.29Q201.83-21.29 203.54-20.43 205.25-19.58 206.15-18.24 207.06-16.89 207.47-15.5 207.89-14.11 207.89-12.74L207.89-12.74Q207.89-11.77 207.59-11.55 207.3-11.33 206.47-11.33L206.47-11.33 194.17-11.33Q193.78-11.33 193.78-11.08L193.78-11.08Q193.78-8.01 195.63-5.42 197.49-2.83 201-2.83L201-2.83Q202.03-2.83 202.96-3.03 203.88-3.22 204.54-3.49 205.2-3.76 205.67-4.03 206.13-4.3 206.47-4.54L206.47-4.54 206.81-4.79Q207.11-4.79 207.11-4.15L207.11-4.15Q207.11-3.76 206.81-3.27L206.81-3.27Q205.84-1.9 203.93-0.81 202.03 0.29 199.78 0.29L199.78 0.29Q195.73 0.29 192.82-2.76 189.92-5.81 189.92-10.21L189.92-10.21Q189.92-15.33 192.68-18.31 195.44-21.29 199.59-21.29ZM224.53-5.66L224.53-5.66 224.53-26.81Q224.53-28.47 224.24-29.93L224.24-29.93Q224-30.71 221.75-30.71L221.75-30.71 221.31-30.71Q221.02-30.71 221.02-31.25L221.02-31.25Q221.02-32.03 221.31-32.03L221.31-32.03Q222.78-32.18 224.02-32.42 225.27-32.67 225.97-32.91 226.68-33.15 227.17-33.37 227.66-33.59 227.9-33.74L227.9-33.74 228.1-33.89 228.2-33.89Q228.39-33.89 228.59-33.62 228.78-33.35 228.83-33.11L228.83-33.11Q228.29-31.54 228.29-28.86L228.29-28.86 228.29-6.59Q228.29-3.76 228.68-2.25L228.68-2.25Q228.78-1.9 229.95-1.59 231.12-1.27 231.61-1.27L231.61-1.27Q231.76-1.27 231.81-0.68 231.86-0.1 231.76 0.15L231.76 0.15Q226.88-0.1 226.54-0.1L226.54-0.1Q226.24-0.1 221.21 0.15L221.21 0.15Q221.02-0.05 221.02-0.66 221.02-1.27 221.21-1.27L221.21-1.27Q221.8-1.27 222.95-1.59 224.09-1.9 224.19-2.25L224.19-2.25Q224.53-3.66 224.53-5.66ZM239.37-3.15Q240.2-2.44 241.52-2.44 242.84-2.44 244.06-3.25 245.28-4.05 245.28-4.88L245.28-4.88 245.28-9.91Q244.89-9.72 243.38-9.23 241.86-8.74 241.01-8.37 240.16-8.01 239.35-7.15 238.54-6.3 238.54-5.18L238.54-5.18Q238.54-3.86 239.37-3.15ZM243.96-21.29L243.96-21.29Q246.65-21.29 247.82-20 248.99-18.7 248.99-15.82L248.99-15.82 248.99-4.54Q248.99-3.52 249.53-2.83 250.07-2.15 251-2.15L251-2.15Q251.68-2.15 252.7-2.83L252.7-2.83Q252.9-2.83 252.9-2.44L252.9-2.44Q252.9-1.81 252.66-1.42L252.66-1.42Q250.65 0.29 249.24 0.29L249.24 0.29Q248.11 0.29 247.09-0.63 246.06-1.56 245.67-2.59L245.67-2.59Q245.62-2.59 245.31-2.27 244.99-1.95 244.45-1.54 243.92-1.12 243.21-0.68 242.5-0.24 241.55 0.05 240.6 0.34 239.62 0.34L239.62 0.34Q237.37 0.34 235.91-0.85 234.44-2.05 234.44-4.44L234.44-4.44Q234.44-5.52 234.98-6.47 235.52-7.42 236.25-8.03 236.98-8.64 238.25-9.28 239.52-9.91 240.42-10.23 241.33-10.55 242.79-11.04 244.26-11.52 244.84-11.77L244.84-11.77Q245.28-11.91 245.28-12.5L245.28-12.5 245.28-16.16Q245.28-17.72 244.31-18.58 243.33-19.43 241.96-19.43L241.96-19.43Q240.5-19.43 239.52-18.43 238.54-17.43 238.54-15.82L238.54-15.82Q238.54-14.11 236.54-14.11L236.54-14.11Q235.18-14.11 234.64-15.04L234.64-15.04Q234.64-17.14 237.71-19.21 240.79-21.29 243.96-21.29ZM279.99-21.39L279.99-21.39Q281.95-21.39 283.24-20.34 284.54-19.29 285.02-17.92L285.02-17.92Q288.69-21.39 292.59-21.39L292.59-21.39Q298.74-21.39 298.74-12.01L298.74-12.01 298.74-6.59Q298.74-3.76 299.13-2.25L299.13-2.25Q299.23-1.9 300.4-1.59 301.58-1.27 302.06-1.27L302.06-1.27Q302.21-1.27 302.26-0.68 302.31-0.1 302.21 0.15L302.21 0.15Q297.33-0.1 296.99-0.1L296.99-0.1Q296.69-0.1 291.66 0.15L291.66 0.15Q291.47-0.05 291.47-0.66 291.47-1.27 291.66-1.27L291.66-1.27Q292.25-1.27 293.4-1.59 294.55-1.9 294.64-2.25L294.64-2.25Q294.98-3.66 294.98-5.37L294.98-5.37 294.98-10.89Q294.98-18.41 290.05-18.41L290.05-18.41Q288.25-18.41 286.93-17.36 285.61-16.31 285.61-15.63L285.61-15.63 285.66-15.43Q285.66-15.23 285.66-15.19L285.66-15.19Q285.85-13.96 285.85-11.67L285.85-11.67 285.85-6.15Q285.85-3.76 286.24-2.25L286.24-2.25Q286.34-1.9 287.51-1.59 288.69-1.27 289.17-1.27L289.17-1.27Q289.32-1.27 289.37-0.68 289.42-0.1 289.32 0.15L289.32 0.15Q284.44-0.1 284.1-0.1L284.1-0.1Q283.8-0.1 278.77 0.15L278.77 0.15Q278.58-0.05 278.58-0.66 278.58-1.27 278.77-1.27L278.77-1.27Q279.36-1.27 280.51-1.59 281.65-1.9 281.75-2.25L281.75-2.25Q282.09-3.66 282.09-5.66L282.09-5.66 282.09-10.64Q282.09-18.41 277.41-18.41L277.41-18.41Q275.94-18.41 274.45-17.31 272.96-16.21 272.96-15.19L272.96-15.19 272.96-6.59Q272.96-3.76 273.35-2.25L273.35-2.25Q273.45-1.9 274.62-1.59 275.8-1.27 276.28-1.27L276.28-1.27Q276.43-1.27 276.48-0.68 276.53-0.1 276.43 0.15L276.43 0.15Q271.55-0.1 271.21-0.1L271.21-0.1Q270.91-0.1 265.88 0.15L265.88 0.15Q265.69-0.05 265.69-0.66 265.69-1.27 265.88-1.27L265.88-1.27Q266.47-1.27 267.62-1.59 268.76-1.9 268.86-2.25L268.86-2.25Q269.2-3.66 269.2-5.66L269.2-5.66 269.2-14.89Q269.2-16.8 268.52-17.53L268.52-17.53Q268.03-18.12 267.32-18.33 266.62-18.55 266.15-18.55 265.69-18.55 265.69-18.65L265.69-18.65Q265.69-19.82 265.98-19.87L265.98-19.87Q271.16-20.65 272.72-21.14L272.72-21.14Q272.77-21.14 272.87-21.17 272.96-21.19 272.96-21.19L272.96-21.19Q273.16-21.19 273.21-20.78 273.26-20.36 273.21-20.17L273.21-20.17Q273.01-18.8 273.01-18.21L273.01-18.21Q273.01-18.02 273.11-18.02L273.11-18.02Q273.16-18.02 273.26-18.12L273.26-18.12Q274.38-19.29 276.31-20.34 278.24-21.39 279.99-21.39ZM324.67-16.65L324.67-16.65 324.67-6.88Q324.67-4.79 325.01-3.17L325.01-3.17Q325.11-2.83 325.55-2.64 325.99-2.44 326.48-2.39 326.96-2.34 327.45-2.34L327.45-2.34 327.89-2.29Q328.04-2.25 328.04-1.76L328.04-1.76Q328.04-1.61 327.92-1.29 327.79-0.98 327.65-0.98L327.65-0.98Q326.92-0.93 326.01-0.78 325.11-0.63 324.33-0.44 323.55-0.24 322.86-0.05 322.18 0.15 321.79 0.29L321.79 0.29 321.35 0.39Q320.96 0.39 320.96-0.39L320.96-0.39 320.96-2.88 320.86-3.13Q317.64 0.34 314.46 0.34L314.46 0.34Q312.66 0.34 311.36-0.56 310.07-1.46 309.46-2.95 308.85-4.44 308.61-5.83 308.36-7.23 308.36-8.74L308.36-8.74 308.36-14.89Q308.36-16.8 307.68-17.53L307.68-17.53Q307.19-18.12 306.48-18.33 305.77-18.55 305.31-18.55 304.85-18.55 304.85-18.65L304.85-18.65Q304.85-19.82 305.14-19.87L305.14-19.87Q310.31-20.65 311.88-21.14L311.88-21.14Q311.93-21.14 312.02-21.17 312.12-21.19 312.12-21.19L312.12-21.19Q312.32-21.19 312.36-20.78 312.41-20.36 312.36-20.17L312.36-20.17Q312.07-17.82 312.07-16.55L312.07-16.55 312.07-9.96Q312.07-6.2 313.19-4.42 314.32-2.64 316.86-2.64L316.86-2.64Q318.32-2.64 319.64-3.78 320.96-4.93 320.96-5.76L320.96-5.76 320.96-14.89Q320.96-16.8 320.28-17.53L320.28-17.53Q319.79-18.12 319.08-18.33 318.37-18.55 317.91-18.55 317.44-18.55 317.44-18.65L317.44-18.65Q317.44-19.82 317.74-19.87L317.74-19.87Q322.91-20.65 324.47-21.14L324.47-21.14Q324.52-21.14 324.62-21.17 324.72-21.19 324.72-21.19L324.72-21.19Q324.91-21.19 324.96-20.78 325.01-20.36 324.96-20.17L324.96-20.17Q324.67-17.82 324.67-16.65ZM338-21.34L338-21.34Q339.07-21.34 340.71-21.07 342.34-20.8 342.98-20.7L342.98-20.7Q343.47-18.46 343.56-15.72L343.56-15.72Q343.56-15.48 342.93-15.48L342.93-15.48Q342.25-15.48 342.2-15.82L342.2-15.82Q341.95-17.19 340.8-18.41 339.66-19.63 338.19-19.63L338.19-19.63Q334.68-19.63 334.68-16.75L334.68-16.75Q334.68-16.02 334.87-15.45 335.07-14.89 335.63-14.38 336.19-13.87 336.48-13.65 336.78-13.43 337.78-12.87 338.78-12.3 339.02-12.16L339.02-12.16Q339.22-12.06 340.17-11.5 341.12-10.94 341.51-10.69 341.9-10.45 342.66-9.86 343.42-9.28 343.76-8.81 344.1-8.35 344.42-7.64 344.74-6.93 344.74-6.2L344.74-6.2Q344.74-3.32 342.49-1.39 340.24 0.54 337.22 0.54L337.22 0.54Q336.19 0.54 335.34 0.42 334.48 0.29 333.31 0 332.14-0.29 331.5-0.39L331.5-0.39Q331.21-1.17 330.94-2.83 330.67-4.49 330.67-5.47L330.67-5.47Q331.06-5.76 331.26-5.76L331.26-5.76Q331.99-5.76 332.04-5.47L332.04-5.47Q332.33-4 333.87-2.61 335.41-1.22 337.22-1.22L337.22-1.22Q338.78-1.22 339.78-2.08 340.78-2.93 340.78-4.54L340.78-4.54Q340.78-5.37 340.46-6.08 340.15-6.79 339.44-7.35 338.73-7.91 338.12-8.28 337.51-8.64 336.39-9.23 335.26-9.81 334.73-10.16L334.73-10.16Q330.92-12.35 330.92-15.38L330.92-15.38Q330.92-18.02 333.04-19.68 335.17-21.34 338-21.34ZM351.06-27.22Q350.35-27.93 350.35-28.96 350.35-29.98 351.06-30.69 351.76-31.4 352.79-31.4 353.81-31.4 354.52-30.69 355.23-29.98 355.23-28.96 355.23-27.93 354.52-27.22 353.81-26.51 352.79-26.51 351.76-26.51 351.06-27.22ZM355.04-16.65L355.04-6.59Q355.04-3.76 355.43-2.25L355.43-2.25Q355.52-1.9 356.7-1.59 357.87-1.27 358.36-1.27L358.36-1.27Q358.5-1.27 358.55-0.68 358.6-0.1 358.5 0.15L358.5 0.15Q353.62-0.1 353.28-0.1 352.94-0.1 347.96 0.15L347.96 0.15Q347.76-0.05 347.76-0.66 347.76-1.27 347.96-1.27L347.96-1.27Q348.54-1.27 349.69-1.59 350.84-1.9 350.93-2.25L350.93-2.25Q351.28-3.66 351.28-5.66L351.28-5.66 351.28-14.89Q351.28-16.8 350.59-17.53L350.59-17.53Q350.1-18.12 349.4-18.33 348.69-18.55 348.22-18.55 347.76-18.55 347.76-18.65L347.76-18.65Q347.76-19.82 348.05-19.87L348.05-19.87Q353.23-20.65 354.79-21.14L354.79-21.14 354.89-21.19Q354.99-21.19 355.04-21.19L355.04-21.19Q355.23-21.19 355.28-20.78 355.33-20.36 355.28-20.17L355.28-20.17Q355.04-18.21 355.04-16.65L355.04-16.65ZM372.27-21.48L372.27-21.48Q374.08-21.48 375.79-21.22 377.49-20.95 377.74-20.95L377.74-20.95Q378.18-20.95 378.84-21.14 379.5-21.34 379.59-21.34L379.59-21.34Q379.74-21.34 380.18-21.19 380.62-21.04 380.62-20.85L380.62-20.85Q380.62-20.8 380.42-19.97 380.23-19.14 380.03-17.63 379.84-16.11 379.84-14.31L379.84-14.31 379.84 4.93Q379.84 7.18 380.23 8.69L380.23 8.69Q380.33 9.03 381.5 9.35 382.67 9.67 383.16 9.67L383.16 9.67Q383.3 9.67 383.35 10.25 383.4 10.84 383.3 11.08L383.3 11.08Q378.42 10.84 378.08 10.84L378.08 10.84Q377.79 10.84 372.76 11.08L372.76 11.08Q372.56 10.89 372.56 10.28 372.56 9.67 372.76 9.67L372.76 9.67Q373.34 9.67 374.49 9.35 375.64 9.03 375.74 8.69L375.74 8.69Q376.08 7.28 376.08 5.27L376.08 5.27 376.08-0.78Q376.08-1.03 376-1.2 375.93-1.37 375.74-1.27L375.74-1.27Q372.81 0.2 371.05 0.2L371.05 0.2Q366.8 0.2 363.99-2.88 361.19-5.96 361.19-9.91L361.19-9.91Q361.19-14.21 364.53-17.85 367.87-21.48 372.27-21.48ZM371.44-19.43L371.44-19.43Q369.29-19.43 367.85-17.92 366.41-16.41 365.9-14.62 365.38-12.84 365.38-11.04L365.38-11.04Q365.38-6.69 367.53-4.44 369.68-2.2 372.76-2.2L372.76-2.2Q373.88-2.2 374.98-2.86 376.08-3.52 376.08-5.13L376.08-5.13 376.08-16.46Q376.08-17.77 374.86-18.6 373.64-19.43 371.44-19.43ZM404.44-16.65L404.44-16.65 404.44-6.88Q404.44-4.79 404.79-3.17L404.79-3.17Q404.88-2.83 405.32-2.64 405.76-2.44 406.25-2.39 406.74-2.34 407.23-2.34L407.23-2.34 407.67-2.29Q407.81-2.25 407.81-1.76L407.81-1.76Q407.81-1.61 407.69-1.29 407.57-0.98 407.42-0.98L407.42-0.98Q406.69-0.93 405.79-0.78 404.88-0.63 404.1-0.44 403.32-0.24 402.64-0.05 401.95 0.15 401.56 0.29L401.56 0.29 401.12 0.39Q400.73 0.39 400.73-0.39L400.73-0.39 400.73-2.88 400.64-3.13Q397.41 0.34 394.24 0.34L394.24 0.34Q392.43 0.34 391.14-0.56 389.85-1.46 389.23-2.95 388.62-4.44 388.38-5.83 388.14-7.23 388.14-8.74L388.14-8.74 388.14-14.89Q388.14-16.8 387.45-17.53L387.45-17.53Q386.96-18.12 386.26-18.33 385.55-18.55 385.08-18.55 384.62-18.55 384.62-18.65L384.62-18.65Q384.62-19.82 384.91-19.87L384.91-19.87Q390.09-20.65 391.65-21.14L391.65-21.14Q391.7-21.14 391.8-21.17 391.9-21.19 391.9-21.19L391.9-21.19Q392.09-21.19 392.14-20.78 392.19-20.36 392.14-20.17L392.14-20.17Q391.85-17.82 391.85-16.55L391.85-16.55 391.85-9.96Q391.85-6.2 392.97-4.42 394.09-2.64 396.63-2.64L396.63-2.64Q398.1-2.64 399.42-3.78 400.73-4.93 400.73-5.76L400.73-5.76 400.73-14.89Q400.73-16.8 400.05-17.53L400.05-17.53Q399.56-18.12 398.85-18.33 398.15-18.55 397.68-18.55 397.22-18.55 397.22-18.65L397.22-18.65Q397.22-19.82 397.51-19.87L397.51-19.87Q402.69-20.65 404.25-21.14L404.25-21.14Q404.3-21.14 404.4-21.17 404.49-21.19 404.49-21.19L404.49-21.19Q404.69-21.19 404.74-20.78 404.79-20.36 404.74-20.17L404.74-20.17Q404.44-17.82 404.44-16.65ZM419.43-19.48L419.43-19.48Q416.89-19.48 415.55-17.31 414.21-15.14 414.21-13.72L414.21-13.72Q414.21-13.38 414.5-13.38L414.5-13.38 424.02-13.38Q424.27-13.38 424.27-13.87L424.27-13.87Q424.27-15.43 422.95-17.46 421.63-19.48 419.43-19.48ZM419.92-21.29L419.92-21.29Q422.17-21.29 423.88-20.43 425.58-19.58 426.49-18.24 427.39-16.89 427.81-15.5 428.22-14.11 428.22-12.74L428.22-12.74Q428.22-11.77 427.93-11.55 427.64-11.33 426.81-11.33L426.81-11.33 414.5-11.33Q414.11-11.33 414.11-11.08L414.11-11.08Q414.11-8.01 415.97-5.42 417.82-2.83 421.34-2.83L421.34-2.83Q422.36-2.83 423.29-3.03 424.22-3.22 424.88-3.49 425.54-3.76 426-4.03 426.46-4.3 426.81-4.54L426.81-4.54 427.15-4.79Q427.44-4.79 427.44-4.15L427.44-4.15Q427.44-3.76 427.15-3.27L427.15-3.27Q426.17-1.9 424.27-0.81 422.36 0.29 420.12 0.29L420.12 0.29Q416.06 0.29 413.16-2.76 410.25-5.81 410.25-10.21L410.25-10.21Q410.25-15.33 413.01-18.31 415.77-21.29 419.92-21.29Z" opacity="1" transform="matrix(1,0,0,1,0,0)" fill="#adbfb8" class="undefined-text-1" data-fill-palette-color="secondary" id="text-1"></path></svg></g></svg></g></svg></g></svg></g><g transform="matrix(1,0,0,1,83.95539786524886,0)"><svg viewBox="0 0 227.60920426950227 227.60920426950227" height="227.60920426950227" width="227.60920426950227"><g><svg></svg></g><g id="icon-0"><svg viewBox="0 0 227.60920426950227 227.60920426950227" height="227.60920426950227" width="227.60920426950227"><g><path d="M0 113.805c0-62.853 50.952-113.805 113.805-113.805 62.853 0 113.805 50.952 113.804 113.805 0 62.853-50.952 113.805-113.804 113.804-62.853 0-113.805-50.952-113.805-113.804zM113.805 219.525c58.388 0 105.72-47.332 105.72-105.72 0-58.388-47.332-105.72-105.72-105.72-58.388 0-105.72 47.332-105.72 105.72 0 58.388 47.332 105.72 105.72 105.72z" data-fill-palette-color="tertiary" fill="#31c48d" stroke="transparent"></path></g><g transform="matrix(1,0,0,1,59.6108998242794,47.69120429588604)"><svg viewBox="0 0 108.38740462094347 132.2267956777302" height="132.2267956777302" width="108.38740462094347"><g><svg xmlns="http://www.w3.org/2000/svg" xmlns:xlink="http://www.w3.org/1999/xlink" version="1.1" x="0" y="0" viewBox="4.543999671936035 4.208000183105469 19.332000732421875 23.583999633789062" enable-background="new 0 0 32 32" xml:space="preserve" height="132.2267956777302" width="108.38740462094347" class="icon-x-0" data-fill-palette-color="accent" id="x-0"><path d="M10.96 8.042v6.041 9.862c-0.677-0.45-1.636-0.736-2.708-0.736-2.048 0-3.708 1.025-3.708 2.292 0 1.265 1.66 2.291 3.708 2.291s3.708-1.026 3.708-2.291V13.786l10.916-3.24v9.565c-0.678-0.45-1.635-0.736-2.709-0.736-2.047 0-3.707 1.025-3.707 2.292 0 1.265 1.66 2.291 3.707 2.291 2.049 0 3.709-1.026 3.709-2.291V10.249 4.208L10.96 8.042z" fill="#096a2e" data-fill-palette-color="accent"></path></svg></g></svg></g></svg></g></svg></g><g></g></svg></g></svg><rect width="241.5240962838037" height="247.2" fill="none" stroke="none" visibility="hidden"></rect></g></svg></g></svg>